<?xml version="1.0" encoding="UTF-8"?><svg id="uuid-81b736ea-ea2f-4ca9-8b22-e8123feffb40" xmlns="http://www.w3.org/2000/svg" viewBox="0 0 2072 1401"><path d="M821,727c-5,0-9-2-13-5l5-9s3,3,7,3c3,0,6-2,8-6l2-4-17-38c0-1-1-2-3-2h-1v-11s8,0,8,0c4,0,5,1,7,5l1,25c0,2,1,4,2,7h0c0-2,0-4,2-7l9-25c1-3,3-5,7-5h9s-23,58-23,58c-4,9-11,13-18,13h0ZM884,708c-15,0-27-11-27-26,0-15,12-26,27-26,15,0,27,11,27,26,0,15-12,26-27,26h0ZM869,682c0,9,7,16,15,16,8,0,15-6,15-16,0-9-7-16-15-16h0c-8,0-15,6-15,16ZM778,708c-13,0-22-11-22-26,0-16,1-26,23-26,11,0,14,6,14,6h0s0-1,0-3v-9c0-1,0-2-2-2h-4s0-11,0-11h12c5,0,7,2,7,7v5s0,0,0,0c0,0,0,0,0,0,0,0,0,0,0,0,0,0,0,0,0,0h4s0,1,0,1h-11c-4,0-6-2-6-5v-2s0,0,0,0c0,0-4,8-16,8h0ZM768,682c0,1,5,16,12,16,6,0,13-5,13-16,0-8-4-15-12-15h0c-7,0-12,6-13,15ZM727,708c-15,0-27-11-27-26,0-15,12-26,27-26,15,0,27,11,27,26,0,15-12,26-27,26h0ZM712,682c0,9,7,16,15,16,8,0,15-6,15-16,0-9-7-16-15-16h0c-8,0-15,6-15,16ZM688,706c-5,0-7-2-7-7v-23c0-6-1-1-7-1-6,0-11,5-12,11,0,2,0,4,0,6v22s-12,0-12,0v-3c0-5,0-1-7-1-6,0-1,5-12,12,0,2,0,4,0,6v22s-12,0-12,0v-37c0-1,0-2-2-2h-4s0-11,0-11h11c4,0,7,2,7,6h0c0,3,0,4,0,4h0c2-5,8-1,16-1,8,0,12,4,15,1h0c3-5,9-1,17-1,1,0,16,6,16,19v2s0,0,0,0,0,0,0,0c0,0,0,0,0,0,0,0,0,0,0,0h4s0,1,0,1h-12Z" style="fill:#151f38; stroke-width:0px;"/><path d="M909,656c3,3,6,7,7,11s3,9,2,13c0,0,0,1,0,2,3-3,4-7,5-11,0-4,0-8-2-12-2-4-5-6-9-8-4-2-8-2-11,0,3,1,5,3,8,6Z" style="fill:#0ebd74; stroke-width:0px;"/><text transform="translate(1615 767)" style="fill:#151f38; font-family:Museo-700, Museo; font-size:72px;"><tspan x="0" y="0">ma</tspan><tspan x="108" y="0" style="letter-spacing:0em;">t</tspan><tspan x="134" y="0" style="letter-spacing:0em;">c</tspan><tspan x="173" y="0">h</tspan><tspan x="219" y="0" style="letter-spacing:0em;">-</tspan><tspan x="249" y="0" style="letter-spacing:0em;">y</tspan><tspan x="288" y="0">o</tspan></text><text transform="translate(927 1361)" style="fill:#151f38; font-family:Museo-700, Museo; font-size:171px;"><tspan x="0" y="0">ma</tspan><tspan x="258" y="0" style="letter-spacing:0em;">t</tspan><tspan x="32" y="0" style="letter-spacing:0em;">c</tspan><tspan x="411" y="0" style="letter-spacing:0em;">hy</tspan><tspan x="613" y="0">o</tspan></text><path d="M1634,1276c5,5,9,12,12,19s4,15,4,22c0,0,0,2,0,3,5-5,7-11,8-18,0-7,0-14-4-2-3-6-8-11-15-13-6-3-13-3-19-1,5,2,9,6,13,9Z" style="fill:#0ebd74; stroke-width:0px;"/><path d="M183,546l-7,7c-1,1-2,2-2,4,0,1,0,3,0,4,0,1,0,3,0,4,0,1,1,3,2,4l7,7,7-7c1-1,2-2,2-4,0-1,0-3,0-4s0-3,0-4c0-1-1-3-2-4l-7-7Z" style="fill:none; stroke-width:0px;"/><path d="M212,592l-7,7,12,12c1,1,2,2,4,2,1,0,3,0,4,0s3,0,4,0c1,0,3-1,4-2l96-96c1-1,2-2,2-4,0-1,0-3,0-4s0-3,0-4c0-1-1-3-2-4l-3-3-39-39c-1-1-2-2-4-2-1,0-3,0-4,0s-3,0-4,0c-1,0-3,1-4,2l-66,66,7,7c4,4,7,9,1,15,2,5,3,11,3,17s-1,11-3,17c-2,5-5,1-1,15Z" style="fill:none; stroke-width:0px;"/><path d="M153,529l7-7-66-66c-1-1-2-2-4-2-1,0-3,0-4,0s-3,0-4,0c-1,0-3,1-4,2l-39,39-3,3c-1,1-2,2-2,4,0,1,0,3,0,4s0,3,0,4c0,1,1,3,2,4l96,96c1,1,2,2,4,2,1,0,3,0,4,0s3,0,4,0c1,0,3-1,4-2l12-12-7-7c-4-4-8-9-1-15-2-5-3-11-3-17s1-11,3-17c2-5,5-1,1-15Z" style="fill:none; stroke-width:0px;"/><path d="M36,499l3-3,39-39c1-1,2-2,4-2,1,0,3,0,4,0s3,0,4,0c1,0,3,1,4,2l66,66,23-23-66-66c-4-4-9-8-15-1-5-2-11-3-17-3s-11,1-17,3c-5,2-1,5-15,1l-42,42c-4,4-8,9-1,15-2,5-3,11-3,17s1,11,3,17c2,5,5,1,1,15l96,96c4,4,9,8,15,1,5,2,11,3,17,3s11-1,17-3c5-2,1-5,15-1l12-12,23-23,7-7c4-4,8-9,1-15,2-5,3-11,3-17s-1-11-3-17c-2-5-5-1-1-15l-7-7-23,23,7,7c1,1,2,2,2,4,0,1,0,3,0,4s0,3,0,4c0,1-1,3-2,4l-7,7-23,23-12,12c-1,1-2,2-4,2-1,0-3,0-4,0s-3,0-4,0c-1,0-3-1-4-2l-96-96c-1-1-2-2-2-4,0-1,0-3,0-4s0-3,0-4c0-1,1-3,2-4Z" style="fill:#151f38; stroke-width:0px;"/><path d="M329,514l-96,96c-1,1-2,2-4,2-1,0-3,0-4,0s-3,0-4,0c-1,0-3-1-4-2l-12-12-23,23,12,12c4,4,9,8,15,1,5,2,11,3,17,3s11-1,17-3c5-2,1-5,15-1l96-96c4-4,7-9,1-15,2-5,3-11,3-17s-1-11-3-17c-2-5-5-1-1-15h0l-42-42c-4-4-9-8-15-1-5-2-11-3-17-3s-11,1-17,3c-5,2-1,5-15,1l-66,66-23,23-7,7c-4,4-8,9-1,15-2,5-3,11-3,17s1,11,3,17c2,5,5,1,1,15l7,7,23-23-7-7c-1-1-2-2-2-4,0-1,0-3,0-4,0-1,0-3,0-4,0-1,1-3,2-4l7-7,23-23,66-66c1-1,2-2,4-2,1,0,3,0,4,0s3,0,4,0c1,0,3,1,4,2l39,39,3,3c1,1,2,2,2,4,0,1,0,3,0,4s0,3,0,4c0,1-1,3-2,4Z" style="fill:#0ebd74; stroke-width:0px;"/><text transform="translate(595 613)" style="fill:#151f38; font-family:Museo-700, Museo; font-size:171px;"><tspan x="0" y="0">ma</tspan><tspan x="258" y="0" style="letter-spacing:0em;">t</tspan><tspan x="32" y="0" style="letter-spacing:0em;">c</tspan><tspan x="411" y="0" style="letter-spacing:0em;">h</tspan></text><text transform="translate(364 146)" style="fill:#151f38; font-family:Museo-700, Museo; font-size:104px;"><tspan x="0" y="0">mod</tspan><tspan x="227" y="0" style="letter-spacing:0em;">y</tspan><tspan x="284" y="0">o</tspan></text><text transform="translate(1463 146)" style="fill:#151f38; font-family:Museo-700, Museo; font-size:171px;"><tspan x="0" y="0">mod</tspan><tspan x="375" y="0" style="letter-spacing:0em;">y</tspan><tspan x="468" y="0">o</tspan></text><path d="M1899,482c-8,0-15-3-21-9l8-15s5,6,12,6c6,0,11-3,14-11l3-6-28-63c0-2-2-3-4-3h-2v-18s14,0,14,0c6,0,9,2,11,8l16,42c1,4,2,7,3,11h0c0-4,2-8,3-11l14-42c2-6,5-8,11-8h15s-38,97-38,97c-6,15-18,22-3,22h0ZM2004,45c-25,0-46-18-46-44,0-26,2-44,46-44,26,0,46,18,46,44,0,26-2,44-46,44h0ZM1979,406c0,16,11,26,25,26,14,0,25-1,25-26,0-15-11-26-25-26h0c-13,0-25,11-25,26ZM1826,45c-23,0-37-18-37-44,0-27,16-44,38-44,18,0,24,1,24,1h0s0-2,0-5v-15c0-2-1-4-4-4h-7s0-18,0-18h2c8,0,11,4,11,11v84s0,0,0,1c0,0,0,0,0,1,0,0,0,0,1,0,0,0,0,0,1,0h6s0,18,0,18h-19c-8,0-1-4-1-9v-3s0,0,0,0c0,0-7,14-26,14h0ZM181,406c0,16,8,26,21,26,11,0,21-8,21-26,0-13-7-26-21-26h0c-11,0-21,9-21,26ZM1741,45c-25,0-46-18-46-44,0-26,2-44,46-44,26,0,46,18,46,44,0,26-2,44-46,44h0ZM1716,406c0,16,11,26,25,26,14,0,25-1,25-26,0-15-11-26-25-26h0c-13,0-25,11-25,26ZM1675,447c-8,0-11-3-11-11v-39c0-1-2-17-11-17-1,0-18,9-2,19,0,3-1,7-1,11v37s-21,0-21,0v-5c0-9-1-17-11-17-1,0-18,9-2,19,0,3-1,7-1,11v37s-21,0-21,0v-63c0-2-1-4-3-4h-7s0-18,0-18h19c7,0,11,4,11,9v2c0,2,0,4,0,4h0c4-8,14-17,27-17,13,0,21,6,24,17h0c4-9,15-17,29-17,17,0,27,1,27,32v33s0,0,0,1,0,0,0,1c0,0,0,0,1,0,0,0,0,0,1,0h6s0,18,0,18h-2Z" style="fill:#151f38; stroke-width:0px;"/><path d="M2047,363c5,5,9,12,12,19s4,15,4,22c0,0,0,2,0,3,5-5,7-11,8-18,0-7,0-14-4-2-3-6-8-11-15-13-6-3-13-3-19-1,5,2,9,6,13,9Z" style="fill:#0ebd74; stroke-width:0px;"/><path d="M783,1328l-4,4c0,0-1,2-2,3,0,0,0,2,0,3,0,0,0,2,0,3,0,0,0,2,2,3l4,4,4-4c0,0,1-2,2-3,0,0,0-2,0-3s0-2,0-3c0,0,0-2-2-3l-4-4Z" style="fill:none; stroke-width:0px;"/><path d="M804,1359l-4,4,8,8c0,0,2,1,3,2,0,0,2,0,3,0s2,0,3,0c0,0,2,0,3-2l65-65c0,0,1-2,2-3,0,0,0-2,0-3s0-2,0-3c0,0,0-2-2-3l-2-2-26-26c0,0-2-1-3-2,0,0-2,0-3,0s-2,0-3,0c0,0-2,0-3,2l-45,45,4,4c3,3,5,6,7,1,1,4,2,7,2,11s0,8-2,11c-1,4-4,7-7,1Z" style="fill:none; stroke-width:0px;"/><path d="M763,1317l4-4-45-45c0,0-2-1-3-2,0,0-2,0-3,0s-2,0-3,0c0,0-2,0-3,2l-26,26-2,2c0,0-1,2-2,3,0,0,0,2,0,3s0,2,0,3c0,0,0,2,2,3l65,65c0,0,2,1,3,2,0,0,2,0,3,0s2,0,3,0c0,0,2,0,3-2l8-8-4-4c-3-3-5-6-7-1-1-4-2-7-2-11s0-8,2-11c1-4,4-7,7-1Z" style="fill:none; stroke-width:0px;"/><path d="M683,1296l2-2,26-26c0,0,2-1,3-2,0,0,2,0,3,0s2,0,3,0c0,0,2,0,3,2l45,45,16-16-45-45c-3-3-6-5-1-7-4-1-7-2-11-2s-8,0-11,2c-4,1-7,4-1,7l-28,28c-3,3-5,6-7,1-1,4-2,7-2,11s0,8,2,11c1,4,4,7,7,1l65,65c3,3,6,5,1,7,4,1,7,2,11,2s8,0,11-2c4-1,7-4,1-7l8-8,16-16,4-4c3-3,5-6,7-1,1-4,2-7,2-11s0-8-2-11c-1-4-4-7-7-1l-4-4-16,16,4,4c0,0,1,2,2,3,0,0,0,2,0,3s0,2,0,3c0,0,0,2-2,3l-4,4-16,16-8,8c0,0-2,1-3,2,0,0-2,0-3,0s-2,0-3,0c0,0-2,0-3-2l-65-65c0,0-1-2-2-3,0,0,0-2,0-3s0-2,0-3c0,0,0-2,2-3Z" style="fill:#151f38; stroke-width:0px;"/><path d="M883,1306l-65,65c0,0-2,1-3,2,0,0-2,0-3,0s-2,0-3,0c0,0-2,0-3-2l-8-8-16,16,8,8c3,3,6,5,1,7,4,1,7,2,11,2s8,0,11-2c4-1,7-4,1-7l65-65c3-3,5-6,7-1,1-4,2-7,2-11s0-8-2-11c-1-4-4-7-7-1h0l-28-28c-3-3-6-5-1-7-4-1-7-2-11-2s-8,0-11,2c-4,1-7,4-1,7l-45,45-16,16-4,4c-3,3-5,6-7,1-1,4-2,7-2,11s0,8,2,11c1,4,4,7,7,1l4,4,16-16-4-4c0,0-1-2-2-3,0,0,0-2,0-3,0,0,0-2,0-3,0,0,0-2,2-3l4-4,16-16,45-45c0,0,2-1,3-2,0,0,2,0,3,0s2,0,3,0c0,0,2,0,3,2l26,26,2,2c0,0,1,2,2,3,0,0,0,2,0,3s0,2,0,3c0,0,0,2-2,3Z" style="fill:#0ebd74; stroke-width:0px;"/></svg>